<mxfile host="app.diagrams.net" modified="2023-07-15T06:14:47.722Z" agent="Mozilla/5.0 (Windows NT 10.0; Win64; x64; rv:109.0) Gecko/20100101 Firefox/114.0" version="21.3.8" etag="xnyiK0h2edYlT6wMSlK5" type="github">
  <diagram name="第 1 页" id="XYcNY6QZNl1R_TftNQ2P">
    <mxGraphModel>
      <root>
        <mxCell id="0" />
        <mxCell id="1" parent="0" />
      </root>
    </mxGraphModel>
  </diagram>
</mxfile>
